<svg xmlns="http://www.w3.org/2000/svg" viewBox="0 0 100 100" width="100" height="100">
  <defs>
    <linearGradient id="g" x1="0%" y1="0%" x2="100%" y2="100%">
      <stop offset="0%" stop-color="#1B2A4A"/>
      <stop offset="100%" stop-color="#2A7B88"/>
    </linearGradient>
  </defs>
  <circle cx="50" cy="50" r="16" fill="url(#g)" opacity="0.9"/>
  <circle cx="50" cy="50" r="10" fill="#D4A843" opacity="0.7"/>
  <path d="M50 34 Q45 20 35 10" stroke="#1B2A4A" stroke-width="2.5" fill="none" stroke-linecap="round"/>
  <path d="M50 34 Q55 18 65 8" stroke="#1B2A4A" stroke-width="2.5" fill="none" stroke-linecap="round"/>
  <path d="M50 34 Q50 22 50 10" stroke="#2A7B88" stroke-width="2" fill="none" stroke-linecap="round"/>
  <path d="M35 10 Q30 5 25 3" stroke="#1B2A4A" stroke-width="1.5" fill="none" stroke-linecap="round"/>
  <path d="M65 8 Q70 3 75 2" stroke="#1B2A4A" stroke-width="1.5" fill="none" stroke-linecap="round"/>
  <path d="M34 50 Q20 45 8 40" stroke="#2A7B88" stroke-width="2" fill="none" stroke-linecap="round"/>
  <path d="M34 50 Q22 55 10 60" stroke="#2A7B88" stroke-width="2" fill="none" stroke-linecap="round"/>
  <path d="M66 50 Q80 45 92 40" stroke="#2A7B88" stroke-width="2" fill="none" stroke-linecap="round"/>
  <path d="M66 50 Q78 55 90 60" stroke="#2A7B88" stroke-width="2" fill="none" stroke-linecap="round"/>
  <path d="M50 66 Q50 80 48 95" stroke="#1B2A4A" stroke-width="3" fill="none" stroke-linecap="round"/>
  <path d="M48 95 Q44 98 40 100" stroke="#D4A843" stroke-width="2" fill="none" stroke-linecap="round"/>
  <path d="M48 95 Q50 99 52 100" stroke="#D4A843" stroke-width="2" fill="none" stroke-linecap="round"/>
  <path d="M48 95 Q54 97 58 100" stroke="#D4A843" stroke-width="2" fill="none" stroke-linecap="round"/>
  <circle cx="40" cy="100" r="2.5" fill="#D4A843" opacity="0.8"/>
  <circle cx="52" cy="100" r="2.5" fill="#D4A843" opacity="0.8"/>
  <circle cx="58" cy="100" r="2" fill="#D4A843" opacity="0.6"/>
</svg>
